<svg xmlns="http://www.w3.org/2000/svg" xmlns:xlink="http://www.w3.org/1999/xlink" width="33" height="29" version="1.1" viewBox="0 0 33 29"><title>Page 1</title><desc>Created with Sketch.</desc><g id="Page-1" fill="none" fill-rule="evenodd" stroke="none" stroke-width="1"><g id="Group-4" fill="#7C7C7C" transform="translate(-95.000000, -62.000000)"><g id="Group-21" transform="translate(84.000000, 50.000000)"><path id="Page-1" d="M36.5855868,12 L36.5855868,15.7153025 L40.2407079,15.7153025 L40.2407079,19.2241993 L40.2407079,19.3274021 L40.2407079,22.8362989 L36.6900188,22.8362989 L36.5855868,22.8362989 L33.0348977,22.8362989 L33.0348977,19.2241993 L29.3797766,19.2241993 L29.3797766,15.7153025 L29.3797766,15.6120996 L29.3797766,12 L25.6204845,12 L25.6204845,15.6120996 L22.0695343,15.6120996 L21.9651023,15.6120996 L18.4141521,15.6120996 L18.4141521,12 L14.65486,12 L14.65486,15.6120996 L14.65486,15.7153025 L14.65486,19.2241993 L11,19.2241993 L11,22.8362989 L11,22.9395018 L11,26.4483986 L11,26.5516014 L11,30.1637011 L14.65486,30.1637011 L14.65486,33.7758007 L18.3102423,33.7758007 L18.3102423,37.2846975 L18.3102423,37.3879004 L18.3102423,41 L22.0695343,41 L22.0695343,37.3879004 L22.0695343,37.2846975 L22.0695343,33.7758007 L25.6204845,33.7758007 L25.6204845,37.2846975 L25.6204845,37.3879004 L25.6204845,41 L29.3797766,41 L29.3797766,37.3879004 L29.3797766,37.2846975 L29.3797766,33.7758007 L32.9304657,33.7758007 L32.9304657,37.2846975 L32.9304657,37.3879004 L32.9304657,41 L36.6900188,41 L36.6900188,37.3879004 L36.6900188,37.2846975 L36.6900188,33.7758007 L40.2407079,33.7758007 L40.2407079,37.2846975 L40.2407079,37.3879004 L40.2407079,41 L44,41 L44,12 L36.5855868,12 Z M22,27 L26,27 L26,23 L22,23 L22,27 Z M15,27 L19,27 L19,23 L15,23 L15,27 Z" transform="translate(27.500000, 26.500000) scale(-1, 1) translate(-27.500000, -26.500000)"/></g></g></g></svg>